<mxfile host="app.diagrams.net" modified="2021-09-19T03:10:58.447Z" agent="5.0 (Macintosh; Intel Mac OS X 10_14_3) AppleWebKit/537.36 (KHTML, like Gecko) Chrome/93.0.4577.82 Safari/537.36" etag="nPFbFGs4-XhcbdOgy0rj" version="15.2.9" type="github">
  <diagram id="3228e29e-7158-1315-38df-8450db1d8a1d" name="Page-1">
    <mxGraphModel dx="946" dy="274" grid="0" gridSize="10" guides="1" tooltips="1" connect="1" arrows="1" fold="1" page="1" pageScale="1" pageWidth="850" pageHeight="210" background="#EFF1F3" math="0" shadow="1">
      <root>
        <mxCell id="0" />
        <mxCell id="1" parent="0" />
        <mxCell id="_KJd5dzx4qh3lxpyMWcO-2" value="" style="fontColor=#0066CC;verticalAlign=top;verticalLabelPosition=bottom;labelPosition=center;align=center;html=1;outlineConnect=0;gradientColor=none;gradientDirection=north;strokeWidth=2;shape=mxgraph.networks.pc;fillColor=#67AB9F;fontSize=30;" parent="1" vertex="1">
          <mxGeometry x="105.18" y="240" width="74.65" height="54" as="geometry" />
        </mxCell>
        <mxCell id="T-5VQnCJckOgUX1Wp16H-28" value="客户端" style="text;html=1;strokeColor=none;fillColor=none;align=center;verticalAlign=middle;whiteSpace=wrap;rounded=0;fontSize=22;" parent="1" vertex="1">
          <mxGeometry x="53" y="308" width="179" height="20" as="geometry" />
        </mxCell>
        <mxCell id="aH1-eks404bDhsACtXEq-2" value="" style="fontColor=#0066CC;verticalAlign=top;verticalLabelPosition=bottom;labelPosition=center;align=center;html=1;outlineConnect=0;gradientColor=none;gradientDirection=north;strokeWidth=2;shape=mxgraph.networks.server;fillColor=#4A919B;" parent="1" vertex="1">
          <mxGeometry x="437.18" y="230" width="51.5" height="64" as="geometry" />
        </mxCell>
        <mxCell id="aH1-eks404bDhsACtXEq-3" value="服务端" style="text;html=1;strokeColor=none;fillColor=none;align=center;verticalAlign=middle;whiteSpace=wrap;rounded=0;fontSize=22;" parent="1" vertex="1">
          <mxGeometry x="377" y="308" width="179" height="20" as="geometry" />
        </mxCell>
        <mxCell id="aH1-eks404bDhsACtXEq-7" value="" style="endArrow=none;html=1;strokeWidth=5;" parent="1" edge="1">
          <mxGeometry width="50" height="50" relative="1" as="geometry">
            <mxPoint x="157" y="806" as="sourcePoint" />
            <mxPoint x="156.5" y="387" as="targetPoint" />
          </mxGeometry>
        </mxCell>
        <mxCell id="aH1-eks404bDhsACtXEq-10" value="" style="endArrow=classic;html=1;strokeWidth=5;fontSize=20;" parent="1" edge="1">
          <mxGeometry width="50" height="50" relative="1" as="geometry">
            <mxPoint x="177" y="420" as="sourcePoint" />
            <mxPoint x="433" y="435" as="targetPoint" />
          </mxGeometry>
        </mxCell>
        <mxCell id="aH1-eks404bDhsACtXEq-11" value="&lt;font style=&quot;font-size: 18px&quot;&gt;SYN，seq=x&lt;/font&gt;" style="text;html=1;strokeColor=none;fillColor=none;align=center;verticalAlign=middle;whiteSpace=wrap;rounded=0;fontSize=20;" parent="1" vertex="1">
          <mxGeometry x="244" y="396" width="141" height="21" as="geometry" />
        </mxCell>
        <mxCell id="aH1-eks404bDhsACtXEq-12" value="" style="endArrow=none;html=1;strokeWidth=5;startArrow=classic;startFill=1;endFill=0;" parent="1" edge="1">
          <mxGeometry width="50" height="50" relative="1" as="geometry">
            <mxPoint x="168" y="518" as="sourcePoint" />
            <mxPoint x="427" y="455" as="targetPoint" />
          </mxGeometry>
        </mxCell>
        <mxCell id="aH1-eks404bDhsACtXEq-13" value="" style="endArrow=classic;html=1;strokeWidth=5;" parent="1" edge="1">
          <mxGeometry width="50" height="50" relative="1" as="geometry">
            <mxPoint x="172" y="533" as="sourcePoint" />
            <mxPoint x="425" y="602" as="targetPoint" />
          </mxGeometry>
        </mxCell>
        <mxCell id="aH1-eks404bDhsACtXEq-16" value="SYN_SENT" style="rounded=1;whiteSpace=wrap;html=1;dashed=1;strokeWidth=3;fillColor=#535E80;strokeColor=none;fontColor=#FFFFFF;" parent="1" vertex="1">
          <mxGeometry x="53" y="417" width="88" height="104" as="geometry" />
        </mxCell>
        <mxCell id="aH1-eks404bDhsACtXEq-17" value="LISTEN" style="rounded=1;whiteSpace=wrap;html=1;dashed=1;strokeWidth=3;strokeColor=none;fillColor=#535E80;fontColor=#FFFFFF;" parent="1" vertex="1">
          <mxGeometry x="458.41" y="390" width="89" height="51" as="geometry" />
        </mxCell>
        <mxCell id="aH1-eks404bDhsACtXEq-18" value="&lt;span&gt;SYN_RCVD&lt;/span&gt;" style="rounded=1;whiteSpace=wrap;html=1;dashed=1;strokeWidth=3;fontColor=#FFFFFF;fillColor=#535E80;strokeColor=none;" parent="1" vertex="1">
          <mxGeometry x="458.41" y="453" width="89" height="149" as="geometry" />
        </mxCell>
        <mxCell id="aH1-eks404bDhsACtXEq-19" value="ESTABLISHED" style="rounded=1;whiteSpace=wrap;html=1;dashed=1;strokeWidth=3;strokeColor=none;fillColor=#535E80;fontColor=#FFFFFF;" parent="1" vertex="1">
          <mxGeometry x="459.35" y="613" width="90.65" height="151" as="geometry" />
        </mxCell>
        <mxCell id="aH1-eks404bDhsACtXEq-21" value="ESTABLISHED" style="rounded=1;whiteSpace=wrap;html=1;dashed=1;strokeWidth=3;fillColor=#535E80;strokeColor=none;fontColor=#FFFFFF;" parent="1" vertex="1">
          <mxGeometry x="53" y="533" width="88" height="236" as="geometry" />
        </mxCell>
        <mxCell id="aH1-eks404bDhsACtXEq-22" value="&lt;font style=&quot;font-size: 18px&quot;&gt;SYN,seq=y,ACK=x+1&lt;/font&gt;" style="text;html=1;strokeColor=none;fillColor=none;align=center;verticalAlign=middle;whiteSpace=wrap;rounded=0;fontSize=20;rotation=-15;" parent="1" vertex="1">
          <mxGeometry x="144.59" y="457.92" width="269" height="32" as="geometry" />
        </mxCell>
        <mxCell id="aH1-eks404bDhsACtXEq-23" value="&lt;font style=&quot;font-size: 18px&quot;&gt;ACK=y+1&lt;/font&gt;" style="text;html=1;strokeColor=none;fillColor=none;align=center;verticalAlign=middle;whiteSpace=wrap;rounded=0;dashed=1;fontSize=20;rotation=0;" parent="1" vertex="1">
          <mxGeometry x="274" y="531" width="132" height="20" as="geometry" />
        </mxCell>
        <mxCell id="YXoqQ_mGJv7HDvLP6CB5-1" value="" style="endArrow=none;html=1;strokeWidth=5;" parent="1" edge="1">
          <mxGeometry width="50" height="50" relative="1" as="geometry">
            <mxPoint x="442" y="808" as="sourcePoint" />
            <mxPoint x="442.0000000000001" y="387" as="targetPoint" />
          </mxGeometry>
        </mxCell>
        <mxCell id="BaweCPi1VYB0Lv0gbQKf-2" value="" style="rounded=1;whiteSpace=wrap;html=1;fillColor=#FDD276;" parent="1" vertex="1">
          <mxGeometry x="662" y="485" width="45" height="91" as="geometry" />
        </mxCell>
        <mxCell id="BaweCPi1VYB0Lv0gbQKf-3" value="&lt;span style=&quot;font-size: 20px&quot;&gt;connect()&lt;/span&gt;" style="rounded=1;whiteSpace=wrap;html=1;strokeColor=none;fillColor=#4A919B;fontColor=#FFFFFF;" parent="1" vertex="1">
          <mxGeometry x="54" y="366" width="90.59" height="38" as="geometry" />
        </mxCell>
        <mxCell id="BaweCPi1VYB0Lv0gbQKf-4" value="&lt;span style=&quot;font-size: 20px&quot;&gt;listen( )&lt;/span&gt;" style="rounded=1;whiteSpace=wrap;html=1;strokeColor=none;fontColor=#FFFFFF;fillColor=#4A919B;" parent="1" vertex="1">
          <mxGeometry x="455.41" y="348" width="92" height="32" as="geometry" />
        </mxCell>
        <mxCell id="BaweCPi1VYB0Lv0gbQKf-5" value="&lt;span style=&quot;font-size: 20px&quot;&gt;accept( )&lt;/span&gt;" style="rounded=1;whiteSpace=wrap;html=1;strokeColor=none;fontColor=#FFFFFF;fillColor=#4A919B;" parent="1" vertex="1">
          <mxGeometry x="459.35" y="780" width="90.89" height="32" as="geometry" />
        </mxCell>
        <mxCell id="BaweCPi1VYB0Lv0gbQKf-11" value="&lt;font style=&quot;font-size: 18px&quot;&gt;半连接队列&lt;/font&gt;" style="text;html=1;strokeColor=none;fillColor=none;align=center;verticalAlign=middle;whiteSpace=wrap;rounded=0;" parent="1" vertex="1">
          <mxGeometry x="716" y="514" width="101" height="38" as="geometry" />
        </mxCell>
        <mxCell id="BaweCPi1VYB0Lv0gbQKf-12" value="" style="rounded=1;whiteSpace=wrap;html=1;fillColor=#9AC7BF;" parent="1" vertex="1">
          <mxGeometry x="567" y="434" width="36" height="18" as="geometry" />
        </mxCell>
        <mxCell id="BaweCPi1VYB0Lv0gbQKf-19" value="&lt;font style=&quot;font-size: 18px&quot;&gt;全连接队列&lt;/font&gt;" style="text;html=1;strokeColor=none;fillColor=none;align=center;verticalAlign=middle;whiteSpace=wrap;rounded=0;" parent="1" vertex="1">
          <mxGeometry x="702.5" y="692" width="103" height="35" as="geometry" />
        </mxCell>
        <mxCell id="BaweCPi1VYB0Lv0gbQKf-24" value="" style="rounded=1;whiteSpace=wrap;html=1;fillColor=#9AC7BF;" parent="1" vertex="1">
          <mxGeometry x="666.5" y="536" width="36" height="18" as="geometry" />
        </mxCell>
        <mxCell id="BaweCPi1VYB0Lv0gbQKf-25" value="" style="rounded=1;whiteSpace=wrap;html=1;fillColor=#9AC7BF;" parent="1" vertex="1">
          <mxGeometry x="666.5" y="554" width="36" height="18" as="geometry" />
        </mxCell>
        <mxCell id="BaweCPi1VYB0Lv0gbQKf-26" value="" style="rounded=1;whiteSpace=wrap;html=1;fillColor=#9AC7BF;" parent="1" vertex="1">
          <mxGeometry x="666.5" y="518" width="36" height="18" as="geometry" />
        </mxCell>
        <mxCell id="BaweCPi1VYB0Lv0gbQKf-27" value="" style="rounded=1;whiteSpace=wrap;html=1;fillColor=#FDD276;" parent="1" vertex="1">
          <mxGeometry x="649" y="661" width="45" height="91" as="geometry" />
        </mxCell>
        <mxCell id="BaweCPi1VYB0Lv0gbQKf-28" value="" style="rounded=1;whiteSpace=wrap;html=1;fillColor=#9AC7BF;" parent="1" vertex="1">
          <mxGeometry x="653.5" y="712" width="36" height="18" as="geometry" />
        </mxCell>
        <mxCell id="BaweCPi1VYB0Lv0gbQKf-29" value="" style="rounded=1;whiteSpace=wrap;html=1;fillColor=#9AC7BF;" parent="1" vertex="1">
          <mxGeometry x="653.5" y="730" width="36" height="18" as="geometry" />
        </mxCell>
        <mxCell id="BaweCPi1VYB0Lv0gbQKf-30" value="" style="rounded=1;whiteSpace=wrap;html=1;fillColor=#9AC7BF;" parent="1" vertex="1">
          <mxGeometry x="653.5" y="694" width="36" height="18" as="geometry" />
        </mxCell>
        <mxCell id="BaweCPi1VYB0Lv0gbQKf-31" value="" style="curved=1;endArrow=classic;html=1;fontColor=#4A919B;dashed=1;strokeWidth=3;" parent="1" edge="1">
          <mxGeometry width="50" height="50" relative="1" as="geometry">
            <mxPoint x="615" y="442" as="sourcePoint" />
            <mxPoint x="676" y="472" as="targetPoint" />
            <Array as="points">
              <mxPoint x="652" y="449" />
            </Array>
          </mxGeometry>
        </mxCell>
        <mxCell id="BaweCPi1VYB0Lv0gbQKf-32" value="" style="curved=1;endArrow=classic;html=1;fontColor=#4A919B;dashed=1;strokeWidth=3;" parent="1" edge="1">
          <mxGeometry width="50" height="50" relative="1" as="geometry">
            <mxPoint x="657" y="572" as="sourcePoint" />
            <mxPoint x="550" y="602" as="targetPoint" />
            <Array as="points">
              <mxPoint x="620" y="602" />
            </Array>
          </mxGeometry>
        </mxCell>
        <mxCell id="BaweCPi1VYB0Lv0gbQKf-33" value="" style="curved=1;endArrow=classic;html=1;fontColor=#4A919B;dashed=1;strokeWidth=3;" parent="1" edge="1">
          <mxGeometry width="50" height="50" relative="1" as="geometry">
            <mxPoint x="560" y="617" as="sourcePoint" />
            <mxPoint x="672" y="647" as="targetPoint" />
            <Array as="points">
              <mxPoint x="604" y="617" />
              <mxPoint x="648" y="624" />
            </Array>
          </mxGeometry>
        </mxCell>
        <mxCell id="BaweCPi1VYB0Lv0gbQKf-34" value="" style="curved=1;endArrow=classic;html=1;fontColor=#4A919B;dashed=1;strokeWidth=3;" parent="1" edge="1">
          <mxGeometry width="50" height="50" relative="1" as="geometry">
            <mxPoint x="663" y="761" as="sourcePoint" />
            <mxPoint x="556" y="791" as="targetPoint" />
            <Array as="points">
              <mxPoint x="626" y="791" />
            </Array>
          </mxGeometry>
        </mxCell>
        <mxCell id="BaweCPi1VYB0Lv0gbQKf-35" value="" style="rounded=1;whiteSpace=wrap;html=1;fillColor=#9AC7BF;" parent="1" vertex="1">
          <mxGeometry x="562" y="802" width="36" height="18" as="geometry" />
        </mxCell>
      </root>
    </mxGraphModel>
  </diagram>
</mxfile>
